<?xml version="1.0" encoding="iso-8859-1"?>
<!-- Generator: Adobe Illustrator 17.1.0, SVG Export Plug-In . SVG Version: 6.00 Build 0)  -->
<!DOCTYPE svg PUBLIC "-//W3C//DTD SVG 1.1//EN" "http://www.w3.org/Graphics/SVG/1.1/DTD/svg11.dtd">
<svg version="1.1" id="Capa_1" xmlns="http://www.w3.org/2000/svg" xmlns:xlink="http://www.w3.org/1999/xlink" x="0px" y="0px"
	 viewBox="0 0 213.573 213.573" style="enable-background:new 0 0 213.573 213.573;" xml:space="preserve">
<path d="M171.503,114.899c-0.442-3.368-3.093-6.019-6.461-6.461c-0.313-0.041-2.008-0.245-4.73-0.245
	c-7.73,0-27.515,1.803-44.208,18.496c-2.127,2.127-3.976,4.267-5.548,6.416v-18.25c30.234-4.225,53.729-33.619,53.729-69.16
	c0-15.467-4.362-30.122-12.615-42.382c-1.519-2.256-4.144-3.518-6.847-3.285c-2.709,0.227-5.084,1.901-6.206,4.377L127.65,28.602
	L107.794,4.221c-1.424-1.749-3.56-2.764-5.815-2.764s-4.392,1.015-5.815,2.764L76.355,28.544L66.371,6.197
	c-1.13-2.53-3.563-4.231-6.327-4.423c-2.781-0.212-5.41,1.154-6.879,3.504C45.748,17.135,41.827,31.11,41.827,45.694
	c0,35.542,23.494,64.935,53.729,69.16v82.577v2.151v6.49c0,4.143,3.357,7.5,7.5,7.5s7.5-3.357,7.5-7.5v-6.49v-2.151
	c0-8.682,2.605-16.959,7.429-23.956c2.797,1.401,6.374,2.523,10.682,2.524c0.001,0,0,0,0.001,0c8.24,0,16.512-4.093,24.582-12.163
	C174.814,142.274,171.649,116.007,171.503,114.899z"/>
<g>
</g>
<g>
</g>
<g>
</g>
<g>
</g>
<g>
</g>
<g>
</g>
<g>
</g>
<g>
</g>
<g>
</g>
<g>
</g>
<g>
</g>
<g>
</g>
<g>
</g>
<g>
</g>
<g>
</g>
</svg>
