<?xml version="1.0" encoding="iso-8859-1"?>
<!-- Generator: Adobe Illustrator 19.0.0, SVG Export Plug-In . SVG Version: 6.00 Build 0)  -->
<svg version="1.1" id="Capa_1" xmlns="http://www.w3.org/2000/svg" xmlns:xlink="http://www.w3.org/1999/xlink" x="0px" y="0px"
	 viewBox="0 0 489.736 489.736" style="enable-background:new 0 0 489.736 489.736;" xml:space="preserve">
<g>
	<g>
		<path d="M438.368,245.181c40.6-34.3,58.3-68.7,48.9-97.8c-4.2-12.5-20.9-48.2-105.1-39.5c5.2-38.5,2.7-99.7-55.1-107.2
			c-25.8-3.3-54.1,17.7-82.2,52c-28.1-34.3-56.2-52-82.2-52c-54.8,0-60.3,68.7-55.1,107.2c-9.4-1-85.1-13.2-105.1,39.5
			c-9.4,29.1,8.3,64.5,48.9,97.8c-40.6,34.3-58.3,68.7-48.9,97.8c17.3,52.4,95.7,40.6,105.1,39.5c-5.2,38.5,0,68.7,15.6,87.4
			c38.9,45.3,93.6,2.1,121.7-32.3c28.1,34.3,82.2,77.2,121.7,32.3c14.6-18.7,20.8-48.9,15.6-87.4c9.4,1,87.7,12.8,105.1-39.5
			C496.668,313.881,478.968,278.481,438.368,245.181z M448.768,329.481c-7.4,20.8-68.7,12.5-86.3,8.3c-17.8-3.8-26,12.5-23.9,23.9
			c9.4,46.8,5.2,73.9-3.1,83.2c-12.1,13.4-44.7-10.4-73.9-52c-7.4-9.3-22.9-12.2-34.3,0c-29.1,41.6-61.3,65.4-73.9,52
			c-8.3-10.4-13.5-37.5-3.1-83.2c2.9-11.4-5.9-26.8-23.9-23.9c-17.7,2.8-72,14.7-87.4-8.3c-3.1-10.4,9.4-36.4,56.2-68.7
			c9.2-6.6,13-23.6,0-33.3c-46.8-32.3-59.3-58.3-56.2-68.7c9.7-20.6,69.7-12.5,87.4-8.3c11.6,3.3,27.4-7.3,23.9-23.9
			c-9.4-46.8-6.9-83.4,11.4-87.4c12.2-2.7,36.4,14.6,65.5,56.2c11.3,12.7,25.2,9.6,33.3,0c29.1-41.6,53.2-58,65.5-56.2
			c17.4,2.5,21.8,41.6,11.4,87.4c-3.4,17.4,12.5,25.9,23.9,23.9c64.5-13.3,85.3,2.1,87.4,8.3c3.1,10.4-9.4,36.4-56.2,68.7
			c-12.3,9.4-10.3,25.2,0,33.3C439.368,293.081,451.868,319.081,448.768,329.481z"/>
		<path d="M244.868,140.081c-58.3,0-105.1,46.8-105.1,105.1s46.8,105.1,105.1,105.1s105.1-46.8,105.1-105.1
			S303.168,140.081,244.868,140.081z M244.868,309.681c-35.4,0-64.5-29.1-64.5-64.5s29.1-64.5,64.5-64.5s64.5,29.1,64.5,64.5
			S280.268,309.681,244.868,309.681z"/>
	</g>
</g>
<g>
</g>
<g>
</g>
<g>
</g>
<g>
</g>
<g>
</g>
<g>
</g>
<g>
</g>
<g>
</g>
<g>
</g>
<g>
</g>
<g>
</g>
<g>
</g>
<g>
</g>
<g>
</g>
<g>
</g>
</svg>
