<?xml version="1.0" encoding="iso-8859-1"?>
<!-- Generator: Adobe Illustrator 19.0.0, SVG Export Plug-In . SVG Version: 6.00 Build 0)  -->
<svg version="1.1" id="Capa_1" xmlns="http://www.w3.org/2000/svg" xmlns:xlink="http://www.w3.org/1999/xlink" x="0px" y="0px"
	 viewBox="0 0 512.001 512" style="enable-background:new 0 0 512.001 512;" xml:space="preserve">
<g>
	<g>
		<path d="M256.001,120.001c-41.353,0-75,33.647-75,75c0,41.353,33.647,75,75,75c41.353,0,75-33.647,75-75
			C331.001,153.647,297.354,120.001,256.001,120.001z M226.001,210.001c-8.284,0-15-6.716-15-15c0-8.286,6.716-15,15-15
			s15,6.714,15,15C241.001,203.285,234.285,210.001,226.001,210.001z M286.001,180.001c-8.284,0-15-6.716-15-15
			c0-8.286,6.716-15,15-15s15,6.714,15,15C301.001,173.285,294.285,180.001,286.001,180.001z"/>
	</g>
</g>
<g>
	<g>
		<path d="M447.178,184.995c-0.963-1.073-18.246-20.059-43.341-29.603c16.968-20.817,22.436-45.916,22.731-47.316
			c1.567-7.485-2.739-14.941-10.005-17.329c-1.357-0.427-25.82-8.22-52.343-3.946c4.292-26.526-3.517-51.006-3.966-52.363
			c-2.373-7.28-9.829-11.602-17.329-10.005c-1.401,0.295-26.499,5.762-47.316,22.731c-9.543-25.095-28.53-42.378-29.603-43.341
			c-5.684-5.098-14.326-5.098-20.01,0c-1.073,0.963-20.059,18.246-29.603,43.341c-20.817-16.968-45.916-22.436-47.316-22.731
			c-7.441-1.597-14.941,2.725-17.329,10.005c-0.449,1.357-8.254,25.829-3.968,52.352c-26.51-4.277-50.973,3.508-52.341,3.957
			c-7.266,2.388-11.572,9.844-10.005,17.329c0.295,1.401,5.762,26.499,22.731,47.316c-25.095,9.543-42.378,28.53-43.341,29.603
			c-5.098,5.698-5.098,14.312,0,20.01c0.963,1.073,18.246,20.059,43.341,29.603c-16.968,20.817-22.436,45.916-22.731,47.316
			c-1.567,7.485,2.739,14.941,10.005,17.329c14.092,4.633,33.818,6.823,52.354,3.825c-4.336,26.574,3.505,51.123,3.955,52.484
			c2.4,7.337,9.936,11.567,17.329,10.005c1.401-0.295,26.499-5.762,47.316-22.731c6.764,17.785,18.093,31.428,24.608,38.333v42.58
			c-19.08-19.532-45.608-31.749-75-31.749h-30c-8.291,0-15,6.709-15,15c0,57.891,47.109,105,105,105c21.712,0,38.288,0,60,0
			c57.891,0,105-47.109,105-105c0-8.291-6.709-15-15-15h-30c-29.392,0-55.92,12.217-75,31.749v-42.58
			c6.515-6.905,17.844-20.548,24.608-38.333c20.817,16.968,45.916,22.436,47.316,22.731c7.393,1.562,14.929-2.668,17.329-10.005
			c0.45-1.36,8.291-25.909,3.955-52.484c18.535,2.998,38.261,0.808,52.354-3.825c7.266-2.388,11.572-9.844,10.005-17.329
			c-0.295-1.401-5.762-26.499-22.731-47.316c25.095-9.543,42.378-28.53,43.341-29.603
			C452.275,199.308,452.275,190.693,447.178,184.995z M256.001,300.001c-57.891,0-105-47.109-105-105s47.109-105,105-105
			s105,47.109,105,105S313.892,300.001,256.001,300.001z"/>
	</g>
</g>
<g>
</g>
<g>
</g>
<g>
</g>
<g>
</g>
<g>
</g>
<g>
</g>
<g>
</g>
<g>
</g>
<g>
</g>
<g>
</g>
<g>
</g>
<g>
</g>
<g>
</g>
<g>
</g>
<g>
</g>
</svg>
