<?xml version="1.0" encoding="iso-8859-1"?>
<!-- Generator: Adobe Illustrator 19.0.0, SVG Export Plug-In . SVG Version: 6.00 Build 0)  -->
<svg version="1.1" id="Layer_1" xmlns="http://www.w3.org/2000/svg" xmlns:xlink="http://www.w3.org/1999/xlink" x="0px" y="0px"
	 viewBox="0 0 512 512" style="enable-background:new 0 0 512 512;" xml:space="preserve">
<g>
	<g>
		<path d="M507.027,190.335c-44.978-40.429-107.617-51.891-162.959-31.753c2.048-58.854-28.208-114.888-80.557-145.171
			c-4.646-2.688-10.375-2.688-15.021,0c-52.35,30.284-82.605,86.316-80.557,145.17c-55.342-20.136-117.979-8.674-162.959,31.754
			c-3.992,3.589-5.763,9.037-4.643,14.287c12.625,59.145,56.566,105.236,113.173,121.475
			c-36.25,46.411-44.708,109.526-20.157,164.796c2.179,4.906,6.813,8.273,12.152,8.83c60.152,6.271,117.564-21.276,150.502-70.095
			c32.842,48.678,90.168,76.385,150.502,70.095c5.339-0.556,9.974-3.924,12.152-8.83c24.552-55.271,16.094-118.386-20.157-164.796
			c56.607-16.239,100.548-62.33,113.173-121.475C512.789,199.372,511.019,193.924,507.027,190.335z M255.999,44.063
			c43.534,29.204,65.601,81.419,55.863,133.327l-29.275,40.293c-3.703-1.591-7.58-2.848-11.588-3.76v-36.648c0-8.284-6.716-15-15-15
			s-15,6.716-15,15v36.648c-4.007,0.912-7.884,2.169-11.588,3.76l-29.275-40.293C190.398,125.482,212.465,73.267,255.999,44.063z
			 M31.803,206.951c41.227-32.379,97.706-37.231,144.062-11.929l29.3,40.328c-2.67,3.05-5.076,6.334-7.17,9.828L163.13,233.85
			c-7.886-2.562-16.342,1.752-18.901,9.63c-2.561,7.879,1.752,16.341,9.63,18.901l34.854,11.325c-0.38,4.231-0.386,7.882,0,12.182
			l-47.374,15.393C88.965,294.501,46.125,257.379,31.803,206.951z M240.999,395.484c-22.633,47.719-71.201,76.992-123.56,75.026
			c-18.053-49.216-5.214-104.429,33.175-140.699l47.382-15.395c2.094,3.495,4.5,6.779,7.17,9.829l-21.563,29.679
			c-4.869,6.702-3.383,16.083,3.319,20.952c6.699,4.868,16.08,3.385,20.952-3.318l21.538-29.645c3.703,1.591,7.58,2.848,11.587,3.76
			V395.484z M255.999,317.37c-20.718,0-37.573-16.855-37.573-37.573c0-20.718,16.855-37.573,37.573-37.573
			s37.573,16.855,37.573,37.573C293.572,300.514,276.717,317.37,255.999,317.37z M394.561,470.51
			c-52.381,1.987-100.929-27.309-123.561-75.028v-49.811c4.007-0.912,7.884-2.169,11.587-3.76l21.538,29.645
			c4.87,6.702,14.251,8.187,20.952,3.318c6.702-4.87,8.188-14.25,3.319-20.952l-21.563-29.679c2.67-3.05,5.076-6.333,7.17-9.828
			l47.385,15.397C399.777,366.082,412.614,421.295,394.561,470.51z M370.658,301.28l-47.373-15.393
			c0.392-4.364,0.374-8.015,0-12.181l34.855-11.325c7.878-2.56,12.19-11.022,9.63-18.901c-2.56-7.879-11.023-12.192-18.901-9.63
			l-34.866,11.329c-2.094-3.495-4.5-6.779-7.17-9.829l29.3-40.328c46.357-25.303,102.836-20.449,144.062,11.929
			C465.874,257.379,423.035,294.501,370.658,301.28z"/>
	</g>
</g>
<g>
</g>
<g>
</g>
<g>
</g>
<g>
</g>
<g>
</g>
<g>
</g>
<g>
</g>
<g>
</g>
<g>
</g>
<g>
</g>
<g>
</g>
<g>
</g>
<g>
</g>
<g>
</g>
<g>
</g>
</svg>
