<?xml version="1.0" encoding="iso-8859-1"?>
<!-- Generator: Adobe Illustrator 17.1.0, SVG Export Plug-In . SVG Version: 6.00 Build 0)  -->
<!DOCTYPE svg PUBLIC "-//W3C//DTD SVG 1.1//EN" "http://www.w3.org/Graphics/SVG/1.1/DTD/svg11.dtd">
<svg version="1.1" id="Capa_1" xmlns="http://www.w3.org/2000/svg" xmlns:xlink="http://www.w3.org/1999/xlink" x="0px" y="0px"
	 viewBox="0 0 370.008 370.008" style="enable-background:new 0 0 370.008 370.008;" xml:space="preserve">
<g>
	<path d="M209.004,313.008h-49c-4.411,0-8,3.589-8,8v41c0,4.411,3.589,8,8,8h49c4.411,0,8-3.589,8-8v-41
		C217.004,316.597,213.415,313.008,209.004,313.008z"/>
	<path d="M118.621,113.008h132.766c4.567,0,8.601-2.36,10.527-6.162c1.921-3.79,1.446-8.418-1.239-12.08L194.841,5.073
		C192.478,1.849,188.899,0,185.021,0c-3.889,0-7.48,1.857-9.853,5.092l-65.838,89.666c-2.684,3.66-3.158,8.29-1.236,12.085
		C110.021,110.646,114.054,113.008,118.621,113.008z"/>
	<path d="M90.712,200.008h188.584c4.81,0,8.924-2.372,11.005-6.344c2.087-3.983,1.69-8.734-1.062-12.71l-22.601-32.63l-0.089-0.124
		c-0.517-0.7-3.419-4.192-9.785-4.192H111.597c-3.944,0-6.805,2.193-8.005,3.996L80.77,180.961
		c-2.753,3.972-3.151,8.721-1.066,12.702C81.784,197.636,85.899,200.008,90.712,200.008z"/>
	<path d="M317.713,268.121l-20.288-30.185c-1.145-2.007-4.021-4.928-8.661-4.928H81.097c-4.094,0-6.667,1.939-7.822,3.905
		L52.293,268.14c-2.83,4.21-3.209,9.187-1.012,13.313c2.187,4.104,6.493,6.555,11.521,6.555h244.403
		c5.025,0,9.332-2.453,11.521-6.563C320.924,277.312,320.546,272.33,317.713,268.121z"/>
</g>
<g>
</g>
<g>
</g>
<g>
</g>
<g>
</g>
<g>
</g>
<g>
</g>
<g>
</g>
<g>
</g>
<g>
</g>
<g>
</g>
<g>
</g>
<g>
</g>
<g>
</g>
<g>
</g>
<g>
</g>
</svg>
