<?xml version="1.0" encoding="iso-8859-1"?>
<!-- Generator: Adobe Illustrator 17.1.0, SVG Export Plug-In . SVG Version: 6.00 Build 0)  -->
<!DOCTYPE svg PUBLIC "-//W3C//DTD SVG 1.1//EN" "http://www.w3.org/Graphics/SVG/1.1/DTD/svg11.dtd">
<svg version="1.1" id="Capa_1" xmlns="http://www.w3.org/2000/svg" xmlns:xlink="http://www.w3.org/1999/xlink" x="0px" y="0px"
	 viewBox="0 0 358.079 358.079" style="enable-background:new 0 0 358.079 358.079;" xml:space="preserve">
<g>
	<path d="M203.8,301.079h-49c-4.411,0-8,3.589-8,8v41c0,4.411,3.589,8,8,8h49c4.411,0,8-3.589,8-8v-41
		C211.8,304.667,208.211,301.079,203.8,301.079z"/>
	<path d="M104.346,161.54l167.264,26.498c0.567,0.09,1.123,0.135,1.653,0.135h0.001c2.814,0,5.095-1.272,6.257-3.49
		c0.576-1.099,1.639-4.056-0.927-7.759l-43.095-62.202c-2.229-3.218-6.339-5.297-10.468-5.297c-0.851,0-1.684,0.092-2.477,0.273
		l-107.847,24.608c-3.921,0.895-8.43,3.943-10.72,7.249l-5.062,7.306c-1.747,2.521-2.128,5.417-1.048,7.945
		C98.96,159.334,101.316,161.06,104.346,161.54z"/>
	<path d="M114.656,102.079h0.28c2.88,0,7.777-0.438,10.984-1.169l100.316-22.823c2.95-0.673,5.19-2.532,6.146-5.099
		c0.957-2.567,0.479-5.438-1.311-7.877L186.028,3.706C184.301,1.351,181.754,0,179.039,0c-2.714,0-5.262,1.351-6.988,3.704
		l-63.469,86.453c-1.923,2.623-2.308,5.544-1.055,8.018C108.784,100.656,111.382,102.079,114.656,102.079z"/>
	<path d="M307.603,264.958l-24.177-36.048c-2.326-3.458-6.951-6.483-10.995-7.195l-164.425-28.982
		c-0.623-0.109-1.271-0.165-1.927-0.165c-4.216,0-8.557,2.243-10.807,5.587l-44.793,66.799c-1.787,2.658-2.064,5.726-0.743,8.207
		c1.307,2.453,3.962,3.918,7.102,3.918h244.404c3.141,0,5.796-1.465,7.103-3.918C309.665,270.679,309.387,267.61,307.603,264.958z"
		/>
</g>
<g>
</g>
<g>
</g>
<g>
</g>
<g>
</g>
<g>
</g>
<g>
</g>
<g>
</g>
<g>
</g>
<g>
</g>
<g>
</g>
<g>
</g>
<g>
</g>
<g>
</g>
<g>
</g>
<g>
</g>
</svg>
