<?xml version="1.0" encoding="iso-8859-1"?>
<!-- Generator: Adobe Illustrator 18.0.0, SVG Export Plug-In . SVG Version: 6.00 Build 0)  -->
<!DOCTYPE svg PUBLIC "-//W3C//DTD SVG 1.1//EN" "http://www.w3.org/Graphics/SVG/1.1/DTD/svg11.dtd">
<svg version="1.1" id="Capa_1" xmlns="http://www.w3.org/2000/svg" xmlns:xlink="http://www.w3.org/1999/xlink" x="0px" y="0px"
	 viewBox="0 0 297 297" style="enable-background:new 0 0 297 297;" xml:space="preserve">
<g>
	<path d="M148.5,26.213c7.226,0,13.104-5.881,13.104-13.108C161.604,5.879,155.726,0,148.5,0s-13.104,5.879-13.104,13.104
		C135.396,20.332,141.274,26.213,148.5,26.213z"/>
	<path d="M89.374,115.027h118.252c0.006,0,0.013,0,0.02,0c5.831,0,10.558-4.728,10.558-10.558c0-2.419-0.813-4.646-2.181-6.428
		l-45.165-66.579c-5.313,6.46-13.362,10.587-22.358,10.587s-17.045-4.127-22.358-10.586L80.638,98.542
		c-2.195,3.235-2.422,7.418-0.592,10.871C81.877,112.867,85.466,115.027,89.374,115.027z"/>
	<path d="M59.813,188.948h177.375c3.804,0,7.314-2.046,9.189-5.355c1.873-3.311,1.822-7.372-0.135-10.634l-25.598-42.672H76.356
		l-25.597,42.672c-1.957,3.262-2.008,7.324-0.134,10.634C52.499,186.902,56.009,188.948,59.813,188.948z"/>
	<path d="M275.803,246.878l-25.606-42.684H46.804l-25.606,42.684c-1.957,3.262-2.008,7.323-0.134,10.634
		c1.874,3.31,5.384,5.355,9.188,5.355h90.871v23.575c0,5.83,4.728,10.558,10.559,10.558h33.637c5.831,0,10.558-4.728,10.558-10.558
		v-23.575h90.874c3.804,0,7.314-2.046,9.188-5.355C277.81,254.201,277.76,250.14,275.803,246.878z"/>
</g>
<g>
</g>
<g>
</g>
<g>
</g>
<g>
</g>
<g>
</g>
<g>
</g>
<g>
</g>
<g>
</g>
<g>
</g>
<g>
</g>
<g>
</g>
<g>
</g>
<g>
</g>
<g>
</g>
<g>
</g>
</svg>
