<?xml version="1.0" encoding="iso-8859-1"?>
<!-- Generator: Adobe Illustrator 19.0.0, SVG Export Plug-In . SVG Version: 6.00 Build 0)  -->
<svg version="1.1" id="Capa_1" xmlns="http://www.w3.org/2000/svg" xmlns:xlink="http://www.w3.org/1999/xlink" x="0px" y="0px"
	 viewBox="0 0 512 512" style="enable-background:new 0 0 512 512;" xml:space="preserve">
<g>
	<g>
		<path d="M410.975,359.497l-48.205-83.516h35.216c11.537,0,18.749-12.522,12.989-22.5L268.99,7.49
			c-5.768-9.995-20.219-9.979-25.979,0L101.026,253.481c-5.768,9.992,1.47,22.5,12.989,22.5h35.216l-48.205,83.517
			c-5.768,9.992,1.47,22.5,12.989,22.5h86.997V482h-34.989c-8.283,0-14.998,6.716-14.998,15s6.715,15,14.998,15
			c7.981,0,174.954,0,179.955,0c8.283,0,14.998-6.716,14.998-15s-6.715-15-14.998-15h-34.989V381.997h86.997
			C409.523,381.997,416.735,369.475,410.975,359.497z M280.992,481.999h-49.983V381.997h49.983V481.999z M139.992,351.997
			l48.205-83.517c5.769-9.993-1.47-22.499-12.989-22.499h-35.216L256.001,44.993L372.009,245.98h-35.216
			c-11.537,0-18.749,12.522-12.989,22.499l48.205,83.517C361.072,351.997,151.253,351.997,139.992,351.997z"/>
	</g>
</g>
<g>
</g>
<g>
</g>
<g>
</g>
<g>
</g>
<g>
</g>
<g>
</g>
<g>
</g>
<g>
</g>
<g>
</g>
<g>
</g>
<g>
</g>
<g>
</g>
<g>
</g>
<g>
</g>
<g>
</g>
</svg>
