<?xml version="1.0" encoding="iso-8859-1"?>
<!-- Generator: Adobe Illustrator 19.0.0, SVG Export Plug-In . SVG Version: 6.00 Build 0)  -->
<svg version="1.1" id="Capa_1" xmlns="http://www.w3.org/2000/svg" xmlns:xlink="http://www.w3.org/1999/xlink" x="0px" y="0px"
	 viewBox="0 0 512 512" style="enable-background:new 0 0 512 512;" xml:space="preserve">
<g>
	<g>
		<path d="M445.763,409.436l-85.622-110.859h45.186c0.146,0.021,0.312,0.01,0.417,0c5.896,0,10.666-4.773,10.666-10.671
			c0-3.439-1.604-6.492-4.146-8.441L327.58,170.524h45.748c0.167,0,0.313,0.01,0.417,0c5.896,0,10.666-4.773,10.666-10.671
			c0-3.449-1.625-6.524-4.167-8.472L264.396,3.861c-4.042-5.148-12.75-5.148-16.791,0L130.276,153.257
			c-2.521,3.22-2.979,7.586-1.188,11.265c1.771,3.668,5.5,6.003,9.583,6.003h45.748L98.256,281.352
			c-2.5,3.22-2.958,7.586-1.167,11.244c1.792,3.658,5.5,5.982,9.583,5.982h45.186L66.237,409.436
			c-2.5,3.22-2.937,7.576-1.146,11.223c1.792,3.658,5.521,5.971,9.583,5.971h136.023c-4.445,29.908-14.124,55.045-26.236,67.153
			c-3.042,3.053-3.958,7.639-2.312,11.63S187.69,512,192.003,512h127.995c4.312,0,8.208-2.595,9.854-6.586s0.729-8.576-2.312-11.63
			c-12.111-12.108-21.791-37.245-26.236-67.153h136.023c4.062,0,7.791-2.313,9.583-5.971
			C448.701,417.012,448.263,412.656,445.763,409.436z"/>
	</g>
</g>
<g>
</g>
<g>
</g>
<g>
</g>
<g>
</g>
<g>
</g>
<g>
</g>
<g>
</g>
<g>
</g>
<g>
</g>
<g>
</g>
<g>
</g>
<g>
</g>
<g>
</g>
<g>
</g>
<g>
</g>
</svg>
