<?xml version="1.0" encoding="iso-8859-1"?>
<!-- Generator: Adobe Illustrator 16.0.0, SVG Export Plug-In . SVG Version: 6.00 Build 0)  -->
<!DOCTYPE svg PUBLIC "-//W3C//DTD SVG 1.1//EN" "http://www.w3.org/Graphics/SVG/1.1/DTD/svg11.dtd">
<svg version="1.1" id="Capa_1" xmlns="http://www.w3.org/2000/svg" xmlns:xlink="http://www.w3.org/1999/xlink" x="0px" y="0px"
	 width="45.94px" height="45.939px" viewBox="0 0 45.94 45.939" style="enable-background:new 0 0 45.94 45.939;"
	 xml:space="preserve">
<g>
	<g>
		<path d="M40.375,43.845l-7.507-10.598h1.005c0.488,0,0.937-0.263,1.161-0.698c0.224-0.434,0.187-0.963-0.096-1.361L28.713,22.4
			h0.11c0.487,0,0.936-0.262,1.161-0.696c0.224-0.434,0.188-0.952-0.096-1.351L24.035,12.1c-0.244-0.346-0.642-0.55-1.066-0.55
			c-0.423,0-0.821,0.206-1.066,0.552l-5.854,8.256c-0.283,0.399-0.319,0.911-0.095,1.345c0.225,0.434,0.672,0.696,1.161,0.696h0.112
			L11,31.191c-0.283,0.398-0.32,0.918-0.095,1.353c0.224,0.435,0.672,0.703,1.161,0.703h1.005L5.564,43.845
			c-0.283,0.397-0.319,0.938-0.095,1.372c0.225,0.434,0.673,0.723,1.162,0.723H39.31c0.489,0,0.938-0.289,1.161-0.723
			C40.696,44.783,40.658,44.242,40.375,43.845z"/>
		<path d="M20.08,6.447l-0.536,3.107c-0.028,0.16,0.038,0.322,0.169,0.417c0.131,0.096,0.306,0.108,0.449,0.034l2.808-1.468
			l2.807,1.468c0.144,0.075,0.317,0.063,0.448-0.034c0.132-0.096,0.197-0.257,0.169-0.417L25.86,6.447l2.267-2.198
			c0.117-0.113,0.159-0.283,0.109-0.438c-0.051-0.154-0.185-0.268-0.346-0.29l-3.134-0.454l-1.403-2.83
			C23.281,0.091,23.133,0,22.97,0s-0.31,0.092-0.382,0.237l-1.404,2.83l-3.136,0.454c-0.161,0.022-0.294,0.136-0.344,0.29
			c-0.051,0.155-0.008,0.325,0.108,0.438L20.08,6.447z"/>
	</g>
</g>
<g>
</g>
<g>
</g>
<g>
</g>
<g>
</g>
<g>
</g>
<g>
</g>
<g>
</g>
<g>
</g>
<g>
</g>
<g>
</g>
<g>
</g>
<g>
</g>
<g>
</g>
<g>
</g>
<g>
</g>
</svg>
