<?xml version="1.0" encoding="iso-8859-1"?>
<!-- Generator: Adobe Illustrator 19.0.0, SVG Export Plug-In . SVG Version: 6.00 Build 0)  -->
<svg version="1.1" id="Capa_1" xmlns="http://www.w3.org/2000/svg" xmlns:xlink="http://www.w3.org/1999/xlink" x="0px" y="0px"
	 viewBox="0 0 487.457 487.457" style="enable-background:new 0 0 487.457 487.457;" xml:space="preserve">
<g>
	<path d="M481.385,167.628c-18-32.3-93.8-43.7-166.2,15c-3.5-4.1-7.3-7.8-11.4-11.3c63-67.2,45.9-145.6,24.1-158
		c-24.1-13.7-53.1-8.3-81.1,17.7c-26.1-29.2-55.1-38.4-79.1-25c-32.3,18-43.7,93.8,15,166.2c-3.5,3-6.8,6.2-9.8,9.7
		c-72.6-59.4-148.7-48-166.8-15.5c-13.4,24-4.2,53.1,25,79.1c-26,28.1-31.4,57.1-17.7,81.1c12.4,21.8,90.4,38.9,157.5-23.5
		c3.4,4.1,7.1,8,11.1,11.5c-59.4,72.6-48,148.7-15.5,166.8c24,13.4,53.1,4.2,79.1-25c28.1,26,57.1,31.4,81.1,17.7
		c21.8-12.4,38.9-90.4-23.5-157.5c4.7-3.9,9.1-8.2,13-12.8c67.2,63.1,145.6,45.9,158.1,24.1c13.7-24.1,8.3-53.1-17.7-81.1
		C485.485,220.628,494.785,191.628,481.385,167.628z M243.685,191.228c29,0,52.4,23.5,52.4,52.4s-23.4,52.5-52.4,52.5
		s-52.4-23.5-52.4-52.4S214.785,191.228,243.685,191.228z M186.385,41.328c4.2-3.1,22.9,6.2,39.5,32.3c6.8,11.8,25.4,10.7,33.3,1
		c20.1-24.7,38.5-32.3,42.7-29.1c19.4,37.1-23,92-36.8,106.5c-24.3-5.3-39.5-1.1-47.9,1.4
		C203.485,139.228,164.985,81.728,186.385,41.328z M45.585,300.528c-3.1-4.2,3.6-23.6,29.1-42.7c6.1-4.5,16.5-22.4-1-33.3
		c-26-16.6-35.4-35.4-32.3-39.5c40.7-21.5,98.7,17.7,112.4,31.1c-2.7,8.7-6.4,30.7-1.9,47.8
		C136.985,278.028,82.485,319.828,45.585,300.528z M300.585,441.728c-4.2,3.1-23.1-4-42.7-29.1c-7-9-23.1-14-33.3,1
		c-16.6,26-35.4,35.4-39.5,32.3c-21.5-40.7,17.7-98.7,31.1-112.4c8.7,2.7,30.1,6.1,47.8,1.9
		C278.085,350.328,319.885,404.828,300.585,441.728z M412.685,259.128c22.5,22.5,32.3,38.5,29.1,42.7c-37.1,19.4-92-23-106.5-36.8
		c3.9-22.9,1.1-39.5-1.4-47.9c14.2-13.7,71.7-52.1,112.1-30.8c3.1,4.2-6.2,22.9-32.3,39.5
		C401.985,233.428,400.485,246.928,412.685,259.128z"/>
</g>
<g>
</g>
<g>
</g>
<g>
</g>
<g>
</g>
<g>
</g>
<g>
</g>
<g>
</g>
<g>
</g>
<g>
</g>
<g>
</g>
<g>
</g>
<g>
</g>
<g>
</g>
<g>
</g>
<g>
</g>
</svg>
