<?xml version="1.0" encoding="iso-8859-1"?>
<!-- Generator: Adobe Illustrator 19.0.0, SVG Export Plug-In . SVG Version: 6.00 Build 0)  -->
<svg version="1.1" id="Layer_1" xmlns="http://www.w3.org/2000/svg" xmlns:xlink="http://www.w3.org/1999/xlink" x="0px" y="0px"
	 viewBox="0 0 511.998 511.998" style="enable-background:new 0 0 511.998 511.998;" xml:space="preserve">
<g>
	<g>
		<path d="M255.912,189.216c-36.826,0-66.783,29.956-66.783,66.783s29.956,66.783,66.783,66.783
			c36.826,0,66.783-29.956,66.783-66.783S292.738,189.216,255.912,189.216z"/>
	</g>
</g>
<g>
	<g>
		<path d="M447.057,269.966c-9.114-5.262-19.288-9.908-29.902-13.968c10.614-4.059,20.788-8.704,29.902-13.968
			c47.469-27.398,58.913-64.897,30.554-114.032C450.277,80.637,412.794,69.01,363.58,97.445
			c-9.114,5.261-18.223,11.747-27.046,18.909c1.793-11.223,2.856-22.354,2.856-32.876C339.39,28.087,311.303,0,255.912,0
			s-83.478,28.087-83.478,83.478c0,10.523,1.063,21.653,2.856,32.876c-8.823-7.162-17.932-13.647-27.046-18.909
			C98.636,68.798,61.319,81.028,34.21,127.999c-27.696,47.973-17.418,86.337,30.554,114.032c9.114,5.262,19.288,9.908,29.902,13.968
			c-10.614,4.059-20.788,8.704-29.902,13.968c-47.972,27.696-58.25,66.059-30.554,114.032
			c28.259,48.962,66.504,58.003,114.032,30.554c9.114-5.261,18.223-11.747,27.046-18.909c-1.793,11.222-2.856,22.354-2.856,32.876
			c0,55.392,28.087,83.478,83.478,83.478s83.478-28.087,83.478-83.478c0-10.523-1.063-21.654-2.856-32.876
			c8.823,7.162,17.932,13.647,27.046,18.909c48.441,27.975,86.246,17.589,114.032-30.554
			C504.474,337.455,497.128,298.866,447.057,269.966z M255.912,356.173c-55.234,0-100.174-44.94-100.174-100.174
			s44.94-100.174,100.174-100.174c55.234,0,100.174,44.94,100.174,100.174S311.145,356.173,255.912,356.173z"/>
	</g>
</g>
<g>
</g>
<g>
</g>
<g>
</g>
<g>
</g>
<g>
</g>
<g>
</g>
<g>
</g>
<g>
</g>
<g>
</g>
<g>
</g>
<g>
</g>
<g>
</g>
<g>
</g>
<g>
</g>
<g>
</g>
</svg>
