<?xml version="1.0" encoding="iso-8859-1"?>
<!-- Generator: Adobe Illustrator 19.0.0, SVG Export Plug-In . SVG Version: 6.00 Build 0)  -->
<svg version="1.1" id="Capa_1" xmlns="http://www.w3.org/2000/svg" xmlns:xlink="http://www.w3.org/1999/xlink" x="0px" y="0px"
	 viewBox="0 0 490 490" style="enable-background:new 0 0 490 490;" xml:space="preserve">
<g>
	<g>
		<path d="M490,245c0-41.1-27-76.1-64.1-88.2c7.1-23,11.5-47.4,13-73.4c-0.3-18.6-15.6-21.9-21.9-21.9c-29,1.5-56.3,7-81.6,15.9
			C328.1,33.6,289.8,0,244,0c-44.1,0-81.2,31.1-90.5,72.5c-22.1-6.5-45.3-10.5-70-12c-17.2,0-22.6,15.6-21.9,21.9
			c1.5,25.2,5.6,49.4,12.4,71.8C31.8,162.9,0,200.4,0,245c0,45.4,32.9,83.4,76.1,91.3c-8.8,25-14.1,52.1-15.6,80.7
			c0,8.7,5.5,21.4,20.9,20.9c26.5-1.6,51.7-6,75-13.4c11.6,37.8,47,65.5,88.6,65.5c42.3,0,78.2-28.6,89.2-67.4
			c25.6,9.2,53.3,14.8,82.8,16.3c16.8,0,21.4-14.6,20.9-20.9c-1.6-29.7-7.2-57.7-16.6-83.5C460.8,323.9,490,287.8,490,245z
			 M245,40.7c29.2,0,52.1,22.9,52.1,52.1v0.7c-17.7,9.7-34,21.6-47.9,34.9c-16.5-15.2-35.9-28.5-56.3-38.7
			C195,62.6,217.9,40.7,245,40.7z M93.8,297.1c-29.2,0-52.1-22.9-52.1-52.1c0-28.1,20.9-50,48-52.1c10.4,20.9,22.9,40.7,39.6,57.3
			c-13.6,13.6-25,29.2-34.4,46.9L93.8,297.1L93.8,297.1z M245,449.3c-24,0-44.8-16.7-50-39.6c19.8-10.4,38.6-22.9,54.2-38.6
			c14.6,13.6,30.2,25,46.9,34.4C293,430.6,271.1,449.3,245,449.3z M103.2,395.1c7.9-56.1,33.3-98.2,67.8-130.3
			c11.6-12.4,4.2-25,0-29.2c-56-55.6-63.9-111.1-66.7-132.4c17.1,2,81.6,14.3,131.4,68.8c4.2,4.2,16.4,11.8,29.2,0
			c32.7-44.8,105.6-67.3,130.3-67.8c-7.4,48-29.6,98.7-66.7,131.4c-11.7,12.7-4.2,25,0,29.2c9.2,8.4,52.9,47.5,66.7,131.4
			c-22.8-3.2-88.3-20.1-130.3-67.8c-8.3-7.3-21.9-7.3-29.2,0C214.7,356,144.6,393.4,103.2,395.1z M405.5,297.1
			c-9.4-17.7-20.9-33.4-34.4-46.9c15.6-16.7,28.1-35.4,38.6-54.2c22.9,5.2,39.6,26.1,39.6,50C449.3,272.1,430.6,293,405.5,297.1z"/>
		<path d="M245,221c-11.5,0-20.9,9.4-20.9,20.9v5.2c0,11.5,9.4,20.9,20.9,20.9s20.9-9.4,20.9-20.9v-5.2
			C265.9,230.4,256.5,221,245,221z"/>
	</g>
</g>
<g>
</g>
<g>
</g>
<g>
</g>
<g>
</g>
<g>
</g>
<g>
</g>
<g>
</g>
<g>
</g>
<g>
</g>
<g>
</g>
<g>
</g>
<g>
</g>
<g>
</g>
<g>
</g>
<g>
</g>
</svg>
