<?xml version="1.0" encoding="iso-8859-1"?>
<!-- Generator: Adobe Illustrator 16.0.0, SVG Export Plug-In . SVG Version: 6.00 Build 0)  -->
<!DOCTYPE svg PUBLIC "-//W3C//DTD SVG 1.1//EN" "http://www.w3.org/Graphics/SVG/1.1/DTD/svg11.dtd">
<svg version="1.1" id="Capa_1" xmlns="http://www.w3.org/2000/svg" xmlns:xlink="http://www.w3.org/1999/xlink" x="0px" y="0px"
	 width="45.979px" height="45.979px" viewBox="0 0 45.979 45.979" style="enable-background:new 0 0 45.979 45.979;"
	 xml:space="preserve">
<g>
	<path d="M29.394,31.926h-4.621c1.243-1.5,2.626-3.422,3.97-5.598c3.361-5.439,5.213-10.395,4.136-11.061
		c-1.078-0.665-4.663,3.201-8.024,8.641c-0.454,0.736-0.876,1.46-1.264,2.169v-9.594c3.666-0.706,6.506-3.968,6.506-7.887
		c0-1.315-0.322-2.992-0.883-4.7c-0.095-0.291-0.338-0.511-0.636-0.583c-0.298-0.071-0.613,0.017-0.829,0.233l-1.496,1.496
		c-0.204,0.204-0.495,0.295-0.778,0.244c-0.283-0.05-0.524-0.237-0.646-0.498l-1.974-4.276C22.71,0.2,22.398,0,22.054,0
		c-0.344,0-0.656,0.2-0.8,0.512l-1.973,4.276c-0.121,0.261-0.361,0.448-0.646,0.498c-0.283,0.051-0.574-0.041-0.778-0.244
		l-1.494-1.495c-0.217-0.217-0.53-0.305-0.828-0.234c-0.298,0.071-0.537,0.292-0.632,0.583c-0.561,1.708-0.883,3.385-0.883,4.7
		c0,3.918,2.792,7.181,6.514,7.887v15.443h-5.818c-0.557,0-1.087,0.229-1.452,0.648c-0.365,0.42-0.529,0.973-0.451,1.523
		l1.045,7.312c0.375,2.624,2.622,4.569,5.272,4.569h5.847c2.65,0,4.898-1.949,5.272-4.573l1.045-7.313
		c0.079-0.552-0.085-1.098-0.45-1.518C30.481,32.154,29.95,31.926,29.394,31.926z"/>
</g>
<g>
</g>
<g>
</g>
<g>
</g>
<g>
</g>
<g>
</g>
<g>
</g>
<g>
</g>
<g>
</g>
<g>
</g>
<g>
</g>
<g>
</g>
<g>
</g>
<g>
</g>
<g>
</g>
<g>
</g>
</svg>
