<?xml version='1.0' encoding='utf-8'?>
<!DOCTYPE svg PUBLIC '-//W3C//DTD SVG 1.1//EN' 'http://www.w3.org/Graphics/SVG/1.1/DTD/svg11.dtd'>
<svg version="1.1" xmlns="http://www.w3.org/2000/svg" viewBox="0 0 512 512" xmlns:xlink="http://www.w3.org/1999/xlink" enable-background="new 0 0 512 512">
  <g>
    <path d="m501,52.4v-21c0-11.3-9.1-20.4-20.4-20.4h-21c-88.6,0-168,52.8-203.6,131.9-35.6-79.1-115-131.9-203.6-131.9h-21c-11.3,0-20.4,9.1-20.4,20.4v21c0,88.6 52.8,168 131.9,203.6-79.1,35.6-131.9,115-131.9,203.6v21c0,11.3 9.1,20.4 20.4,20.4h21c88.6,0 168-52.8 203.6-131.8 35.6,79 115,131.8 203.6,131.8h21c11.3,0 20.4-9.1 20.4-20.4v-21c0-88.6-52.8-168-131.8-203.6 79-35.6 131.8-115 131.8-203.6zm-245,258.9c-30.5,5.68434e-14-55.3-24.8-55.3-55.3 0-30.5 24.8-55.3 55.3-55.3 30.5,0 55.3,24.8 55.3,55.3 0,30.5-24.8,55.3-55.3,55.3zm-204.2-258.9v-0.6h0.6c74.8,0 141.7,46.1 169.2,114.4-25.4,9.8-45.6,30-55.3,55.3-68.3-27.4-114.5-94.2-114.5-169.1zm.6,407.8h-0.6v-0.6c0-74.8 46.1-141.7 114.4-169.2 9.8,25.4 30,45.6 55.3,55.3-27.4,68.3-94.2,114.5-169.1,114.5zm407.8-.6v0.6h-0.6c-74.8,0-141.7-46.1-169.2-114.4 25.4-9.8 45.6-30 55.3-55.3 68.3,27.4 114.5,94.2 114.5,169.1zm-114.4-238c-9.8-25.4-30-45.6-55.3-55.3 27.4-68.3 94.2-114.5 169.1-114.5h0.6v0.6c-5.68434e-14,74.9-46.2,141.7-114.4,169.2z"/>
  </g>
</svg>
