<?xml version="1.0" encoding="iso-8859-1"?>
<!-- Generator: Adobe Illustrator 19.0.0, SVG Export Plug-In . SVG Version: 6.00 Build 0)  -->
<svg version="1.1" id="Layer_1" xmlns="http://www.w3.org/2000/svg" xmlns:xlink="http://www.w3.org/1999/xlink" x="0px" y="0px"
	 viewBox="0 0 511.999 511.999" style="enable-background:new 0 0 511.999 511.999;" xml:space="preserve">
<g>
	<g>
		<g>
			<path d="M491.402,306.684c-5.616-20.842-18.12-38.648-35.576-50.9c38.094-26.917,50.095-79.105,26.299-120.256l-8.887-15.367
				c-12.21-21.116-31.913-36.214-55.477-42.51c-20.855-5.572-42.527-3.661-61.872,5.317C351.657,36.513,312.488,0,264.952,0h-17.753
				c-47.783,0-87.111,36.887-91,83.682c-19.547-9.158-41.477-11.086-62.545-5.363c-23.538,6.394-43.178,21.573-55.302,42.74
				l-8.821,15.403c-12.123,21.166-15.279,45.785-8.886,69.323c5.66,20.833,18.198,38.611,35.68,50.826
				C18.286,283.608,6.393,335.82,30.275,376.921l8.917,15.349c12.254,21.091,31.987,36.146,55.565,42.394
				c20.869,5.532,42.535,3.576,61.86-5.443c4.323,46.383,43.466,82.783,90.919,82.779c0.062,0,0.129,0,0.192,0l17.751-0.037
				c24.391-0.05,47.304-9.596,64.515-26.879c15.234-15.297,24.386-35.034,26.255-56.276c12.216,5.622,25.159,8.316,37.969,8.315
				c31.627-0.001,62.424-16.427,79.298-45.749l8.858-15.387C494.542,354.847,497.748,330.235,491.402,306.684z M448.031,356.221
				l-8.858,15.387c-14.215,24.703-45.88,33.232-70.583,19.018l-21.964-12.643c-6.137-3.531-13.692-3.521-19.819,0.029
				s-9.892,10.101-9.879,17.182l0.052,25.345c0.029,13.806-5.319,26.798-15.062,36.581c-9.743,9.782-22.711,15.186-36.519,15.214
				l-17.751,0.037c-0.037,0-0.071,0-0.108,0c-28.451,0-51.628-23.118-51.689-51.583l-0.053-25.343
				c-0.015-7.081-3.807-13.616-9.948-17.142c-3.055-1.754-6.461-2.631-9.866-2.631c-3.438,0-6.877,0.894-9.953,2.681l-21.915,12.732
				c-11.937,6.937-25.86,8.809-39.207,5.273s-24.516-12.058-31.453-23.997l-8.917-15.35c-14.32-24.643-5.919-56.341,18.725-70.661
				l21.911-12.731c6.122-3.557,9.88-10.111,9.859-17.193c-0.022-7.081-3.821-13.612-9.965-17.132l-21.991-12.599
				c-11.98-6.862-20.573-17.979-24.191-31.302c-3.619-13.324-1.833-27.259,5.03-39.241l8.821-15.403
				c6.863-11.982,17.98-20.574,31.304-24.193c13.326-3.619,27.261-1.832,39.242,5.031l22.565,12.925
				c6.132,3.512,13.67,3.494,19.784-0.052c6.114-3.545,9.878-10.076,9.878-17.143V91.316c0-28.502,23.188-51.689,51.689-51.689
				h17.753c28.502,0,51.689,23.188,51.689,51.689v25.344c0,7.081,3.779,13.624,9.912,17.162c6.134,3.539,13.69,3.535,19.819-0.009
				l21.94-12.687c11.953-6.911,25.883-8.754,39.219-5.191c13.338,3.564,24.492,12.11,31.403,24.063l8.887,15.367
				c14.268,24.674,5.803,56.356-18.87,70.623l-21.94,12.686c-6.13,3.545-9.903,10.092-9.896,17.172
				c0.007,7.08,3.794,13.621,9.93,17.152l21.965,12.642c11.969,6.887,20.537,18.022,24.129,31.353
				C456.731,330.324,454.916,344.255,448.031,356.221z"/>
			<path d="M255.997,173.208c-45.653,0-82.792,37.141-82.792,82.792s37.141,82.793,82.792,82.793
				c45.653,0,82.795-37.141,82.795-82.793S301.65,173.208,255.997,173.208z M255.997,299.167c-23.802,0-43.165-19.364-43.165-43.167
				c0-23.802,19.364-43.165,43.165-43.165c23.802,0,43.168,19.364,43.168,43.165S279.8,299.167,255.997,299.167z"/>
		</g>
	</g>
</g>
<g>
</g>
<g>
</g>
<g>
</g>
<g>
</g>
<g>
</g>
<g>
</g>
<g>
</g>
<g>
</g>
<g>
</g>
<g>
</g>
<g>
</g>
<g>
</g>
<g>
</g>
<g>
</g>
<g>
</g>
</svg>
